<svg id="Layer_1" data-name="Layer 1" xmlns="http://www.w3.org/2000/svg" xmlns:xlink="http://www.w3.org/1999/xlink"
     viewBox="0 0 305.76 121.01">
    <defs>
        <style>
            .cls-1{fill:none;}.cls-2{clip-path:url(#clip-path);}.cls-3{fill:#fff;}.cls-4{fill:#ffde11;}.cls-5{fill:#292929;}.cls-6{fill:#ef4237;}.cls-7{fill:#f16c55;}.cls-8{fill:#cf382d;}.cls-9{fill:#6e6f72;}.cls-10{fill:#d2d3d4;}.cls-11{fill:#e6e7e7;}.cls-12{fill:#bdbec0;}
        </style>
        <clipPath id="clip-path">
            <rect class="cls-1" y="0.68" width="305.76" height="119.8"/>
        </clipPath>
    </defs>
    <g id="Logo">
        <g class="cls-2">
            <path class="cls-3" d="M82,37.89H71.33L60.05,20.8V37.89H49.39V3.9H60.05L71.33,21.28V3.9H82Z"/>
            <path class="cls-3" d="M168.34,37.89H157.68L146.4,20.8V37.89H135.74V3.9H146.4l11.28,17.38V3.9h10.66Z"/>
            <path class="cls-4" d="M108.53.68a19.9,19.9,0,1,0,19.9,19.9A19.89,19.89,0,0,0,108.53.68Z"/>
            <path class="cls-5"
                  d="M100.43,33.88l8.1-13.3h0l-15.6.4v-.4A15.73,15.73,0,0,1,101,6.88l7.5,13.7h0L116,6.88a15.61,15.61,0,0,1,8.1,13.7V21l-15.6-.4h0l8.1,13.3a15.92,15.92,0,0,1-8.1,2.3A16.21,16.21,0,0,1,100.43,33.88Z"/>
            <path class="cls-3" d="M97.29,44.75V53.2H84v4.7h9.6v8H84V78.73H73.29v-34Z"/>
            <path class="cls-3"
                  d="M111.4,44.75V63.9a6,6,0,0,0,1,3.72A3.9,3.9,0,0,0,115.77,69a4.13,4.13,0,0,0,3.41-1.37,5.73,5.73,0,0,0,1.1-3.72V44.75h10.61V63.9a16.12,16.12,0,0,1-2,8.28,13,13,0,0,1-5.52,5.16,17.51,17.51,0,0,1-7.83,1.73,16.4,16.4,0,0,1-7.65-1.73,12.24,12.24,0,0,1-5.21-5.14,17,17,0,0,1-1.87-8.3V44.75Z"/>
            <path class="cls-3" d="M168.19,78.73H157.53L146.25,61.64V78.73H135.6v-34h10.65l11.28,17.37V44.75h10.66Z"/>
            <path class="cls-3"
                  d="M193.92,56.36a4.18,4.18,0,0,0-1.78-1.56,6.53,6.53,0,0,0-2.78-.55,5.91,5.91,0,0,0-4.76,2,8.2,8.2,0,0,0-1.67,5.45q0,4,1.87,6c1.24,1.32,3.16,2,5.76,2a7.12,7.12,0,0,0,5.95-3H188V59.1h17.33V69.76a20.46,20.46,0,0,1-6.1,6.5A16.78,16.78,0,0,1,189.4,79a18.62,18.62,0,0,1-9.19-2.18,14.86,14.86,0,0,1-6-6.12,18.92,18.92,0,0,1-2.09-9,18.85,18.85,0,0,1,2.09-9,14.82,14.82,0,0,1,6-6.12,18.27,18.27,0,0,1,9.12-2.19q6.67,0,10.87,3.22a12.74,12.74,0,0,1,5,8.73Z"/>
            <path class="cls-3"
                  d="M253.32,64.26a8.31,8.31,0,0,1,1.7,5.16,8.4,8.4,0,0,1-3,6.89q-3,2.41-8.47,2.42H225.79v-34h17.33q5.17,0,8.16,2.25a7.77,7.77,0,0,1,3,6.58,8,8,0,0,1-1.56,5,7.4,7.4,0,0,1-4.15,2.71A8.11,8.11,0,0,1,253.32,64.26ZM236.44,58h4.13a3.35,3.35,0,0,0,2.14-.58,2.19,2.19,0,0,0,.69-1.78,2.31,2.31,0,0,0-.69-1.84,3.23,3.23,0,0,0-2.14-.6h-4.13Zm7,11.64a2.18,2.18,0,0,0,.7-1.8c0-1.64-.95-2.45-2.84-2.45h-4.85v4.8h4.85A3.47,3.47,0,0,0,243.43,69.64Z"/>
            <path class="cls-3" d="M269.37,70.67h10.27v8.06H258.72v-34h10.65Z"/>
            <path class="cls-3" d="M293.76,53.24v4.18h10.56v8H293.76v4.8h12v8.49H283.1v-34h22.66v8.49Z"/>
            <rect class="cls-6" x="210.03" y="30.04" width="10.58" height="48.69"/>
            <rect class="cls-7" x="210.03" y="30.04" width="2.82" height="48.69"/>
            <rect class="cls-8" x="217.79" y="30.04" width="2.82" height="48.69"/>
            <rect class="cls-3" x="210.03" y="34.98" width="10.58" height="4.36"/>
            <rect class="cls-3" x="210.03" y="46.53" width="10.58" height="4.36"/>
            <rect class="cls-3" x="210.03" y="58.03" width="10.58" height="4.36"/>
            <rect class="cls-3" x="210.03" y="69.58" width="10.58" height="4.36"/>
            <rect class="cls-6" x="208.66" y="30.04" width="13.27" height="1.63"/>
            <path class="cls-3" d="M24,86.16v8.45H10.66v4.7h9.6v8h-9.6v12.81H0v-34Z"/>
            <path class="cls-3"
                  d="M49.39,115H38.06l-1.68,5.13H25.2l12.43-34H49.92l12.38,34H51.07Zm-2.59-8-3.07-9.46L40.66,107Z"/>
            <path class="cls-3"
                  d="M65.78,94.13A14.67,14.67,0,0,1,71.62,88a17.5,17.5,0,0,1,8.92-2.19,18.07,18.07,0,0,1,7.9,1.66,14.47,14.47,0,0,1,5.66,4.68,16.9,16.9,0,0,1,2.91,7H85.78a6.06,6.06,0,0,0-2.19-2.61,5.68,5.68,0,0,0-3.24-.94,5.08,5.08,0,0,0-4.25,2,10.21,10.21,0,0,0,0,10.85,5.1,5.1,0,0,0,4.25,2,5.75,5.75,0,0,0,3.24-.93A6.15,6.15,0,0,0,85.78,107H97a16.94,16.94,0,0,1-2.91,7.06,14.64,14.64,0,0,1-5.66,4.68,18.21,18.21,0,0,1-7.9,1.65,17.5,17.5,0,0,1-8.92-2.18,14.79,14.79,0,0,1-5.84-6.12,20.76,20.76,0,0,1,0-18Z"/>
            <path class="cls-3" d="M127.54,86.16v8.45h-9v25.53H107.86V94.61H98.93V86.16Z"/>
            <path class="cls-3"
                  d="M138.17,118.22a16.86,16.86,0,0,1-6.36-6.24,18.31,18.31,0,0,1,0-18,16.73,16.73,0,0,1,6.36-6.22,18.46,18.46,0,0,1,17.59,0A16.53,16.53,0,0,1,162.07,94a18.45,18.45,0,0,1,0,18,16.64,16.64,0,0,1-6.33,6.24,18.2,18.2,0,0,1-17.57,0Zm13.7-9.72A8.23,8.23,0,0,0,153.6,103a8.32,8.32,0,0,0-1.73-5.55,6.05,6.05,0,0,0-4.89-2,6.12,6.12,0,0,0-4.95,2A8.32,8.32,0,0,0,140.3,103,8.23,8.23,0,0,0,142,108.5a6.12,6.12,0,0,0,4.95,2A6.05,6.05,0,0,0,151.87,108.5Z"/>
            <path class="cls-3"
                  d="M185.33,120.14,178.94,108h-.05v12.19H168.24v-34h15.84a15.69,15.69,0,0,1,7,1.46,10.2,10.2,0,0,1,4.4,4A11.15,11.15,0,0,1,197,97.29a10.06,10.06,0,0,1-1.9,6,10.37,10.37,0,0,1-5.44,3.79l7.39,13Zm-6.44-19.29h4.23a3.35,3.35,0,0,0,2.3-.7,3.35,3.35,0,0,0,0-4.3,3.16,3.16,0,0,0-2.28-.76h-4.23Z"/>
            <path class="cls-3" d="M233,86.16l-12.19,23.66v10.32H210.19V109.82L198,86.16h12.19l5.43,12,5.42-12Z"/>
            <polygon class="cls-10" points="32.88 67.61 25.18 120.14 62.72 120.14 55.1 67.61 32.88 67.61"/>
            <polygon class="cls-11" points="32.88 67.61 25.18 120.14 33.19 120.14 37.59 67.61 32.88 67.61"/>
            <polygon class="cls-12" points="55.1 67.61 50.39 67.61 54.78 120.14 62.72 120.14 55.1 67.61"/>
            <polygon class="cls-6" points="31.23 78.84 56.75 78.84 56.04 74.05 31.93 74.05 31.23 78.84"/>
        </g>
    </g>
</svg>
